<svg width="32" height="32" viewBox="0 0 32 32" fill="none" xmlns="http://www.w3.org/2000/svg">
<path d="M16 0C18.9454 0.000176271 21.333 2.3876 21.333 5.33301V10.666H26.666C29.6114 10.666 31.9987 13.0538 31.999 15.999C31.999 18.9445 29.6115 21.333 26.666 21.333H21.333V26.666C21.333 29.6115 18.9445 31.999 15.999 31.999C13.0537 31.9988 10.666 29.6114 10.666 26.666V21.333H15.999C17.9321 21.333 19.6259 20.3045 20.5615 18.7646C20.6091 18.6863 20.6527 18.6054 20.6963 18.5244C20.6933 18.53 20.6915 18.5364 20.6885 18.542C20.6476 18.6172 20.6057 18.6917 20.5615 18.7646C20.6121 18.6814 20.659 18.5959 20.7051 18.5098C20.7024 18.5148 20.699 18.5194 20.6963 18.5244C20.7194 18.4815 20.7417 18.4381 20.7637 18.3945C20.7607 18.4004 20.7579 18.4063 20.7549 18.4121C20.7826 18.3575 20.81 18.3027 20.8359 18.2471C20.8343 18.2505 20.8317 18.2534 20.8301 18.2568C20.8501 18.2141 20.8698 18.1713 20.8887 18.1279C20.8849 18.1366 20.8818 18.1456 20.8779 18.1543C20.9085 18.0851 20.9371 18.015 20.9648 17.9443C20.9749 17.9186 20.9854 17.8931 20.9951 17.8672C21.0659 17.678 21.1266 17.4839 21.1758 17.2852C21.1752 17.2875 21.1744 17.2897 21.1738 17.292C21.1832 17.2545 21.1907 17.2165 21.1992 17.1787C21.1961 17.1924 21.1936 17.2061 21.1904 17.2197C21.2071 17.1486 21.2225 17.0771 21.2363 17.0049C21.2345 17.0147 21.2324 17.0244 21.2305 17.0342C21.2424 16.9734 21.2528 16.9121 21.2627 16.8506C21.261 16.8613 21.2596 16.8721 21.2578 16.8828C21.2701 16.8091 21.2808 16.7349 21.29 16.6602C21.2873 16.682 21.2842 16.7038 21.2812 16.7256C21.2882 16.6743 21.2953 16.623 21.3008 16.5713C21.3 16.5788 21.2997 16.5863 21.2988 16.5938C21.3205 16.3988 21.333 16.2008 21.333 16C21.333 13.0548 18.9442 10.666 15.999 10.666C13.054 10.6662 10.666 13.0549 10.666 16V21.333H5.33301C2.38757 21.333 0.000131682 18.9454 0 16C3.86258e-07 13.0545 2.38749 10.666 5.33301 10.666H10.666V5.33301C10.666 2.38749 13.0545 7.50309e-07 16 0ZM20.8301 18.2568C20.8084 18.3031 20.7866 18.349 20.7637 18.3945C20.7866 18.349 20.8084 18.3031 20.8301 18.2568ZM20.9482 17.9844C20.9289 18.0325 20.9094 18.0805 20.8887 18.1279C20.9094 18.0805 20.9289 18.0325 20.9482 17.9844ZM21.0752 17.6348C21.0835 17.6091 21.0917 17.5834 21.0996 17.5576C21.0969 17.5666 21.0956 17.576 21.0928 17.585C21.0875 17.6018 21.0806 17.618 21.0752 17.6348ZM21.2305 17.0342C21.2209 17.0827 21.21 17.1307 21.1992 17.1787C21.2101 17.1307 21.2209 17.0827 21.2305 17.0342ZM21.2812 16.7256C21.2756 16.7674 21.2693 16.8091 21.2627 16.8506C21.2694 16.8091 21.2755 16.7674 21.2812 16.7256ZM21.3047 16.5449C21.3038 16.5538 21.3017 16.5625 21.3008 16.5713C21.3113 16.473 21.3211 16.3742 21.3262 16.2744L21.3047 16.5449ZM21.1738 17.292C21.1516 17.3815 21.1264 17.4699 21.0996 17.5576C21.1264 17.4699 21.1515 17.3815 21.1738 17.292ZM21.0752 17.6348C21.0511 17.7096 21.0263 17.784 20.999 17.8574C21.0263 17.784 21.0511 17.7096 21.0752 17.6348Z" fill="url(#paint0_linear_5766_9296)"/>
<defs>
<linearGradient id="paint0_linear_5766_9296" x1="15.9994" y1="10.6663" x2="15.9994" y2="21.4998" gradientUnits="userSpaceOnUse">
<stop stop-color="#FF00D5"/>
<stop offset="1" stop-color="#9E1ED9"/>
</linearGradient>
</defs>
</svg>
